<?xml version="1.0" standalone="yes"?>
<svg xmlns="http://www.w3.org/2000/svg" width="402" height="302">
<path style="fill:#fefefe; stroke:none;" d="M55 0L56 1L55 0z"/>
<path style="fill:#ffffff; stroke:none;" d="M56 0L56 1L401 1L401 301L23 301L23 302L402 302L402 0L56 0z"/>
<path style="fill:#000000; stroke:none;" d="M1 1L1 301L401 301L401 1L1 1z"/>
<path style="fill:#ffffff; stroke:none;" d="M140 130C140.606 158.28 190.422 147.958 180 180L155 180L155 185L180 185L180 187L189 187L190 185L214 185L215 187L224 187L225 185L237 185L237 192L248 192L248 185L251 185L251 184L251 181L251 180L248 180L248 179L248 173L237 173L237 180L225 180C216.016 156.67 240.15 150.002 259 150L265 130L225 130C215.574 130 207.897 129.593 203 139L201 139C198.122 130.612 190.836 130.003 183 130L140 130z"/>
<path style="fill:#fefefe; stroke:none;" d="M183 132L184 133L183 132M171 147L172 148L171 147M184 147L185 148L184 147M216 162L217 163L216 162z"/>
<path style="fill:#000000; stroke:none;" d="M190 180L215 180C213.607 164.654 190.854 164.401 190 180z"/>
<path style="fill:#fefefe; stroke:none;" d="M193 170L194 171L193 170M183 177L184 178L183 177M186 177L187 178L186 177M181 180L182 181L181 180M22 301L23 302L22 301z"/>
</svg>
